<svg xmlns="http://www.w3.org/2000/svg" width="512" height="512"><path fill="#44B5ED" d="M486 8c3.006 2.004 3.826 3.218 4.61 6.738.402 3.365.385 6.443.203 9.826l-.203 3.974-.242 4.346-.243 4.632c-.222 4.242-.453 8.482-.685 12.723-.249 4.574-.49 9.15-.732 13.724q-.715 13.444-1.444 26.888-.845 15.659-1.679 31.319-1.492 27.948-3 55.896a115582 115582 0 0 0-3.628 67.66l-.179 3.341a242703 242703 0 0 1-3.605 67.292q-.879 16.411-1.763 32.823-.367 6.786-.73 13.572-.332 6.22-.67 12.437l-.24 4.486c-.348 6.536-.712 13.072-1.22 19.598l-.198 2.56c-.546 3.355-1.737 5.045-4.352 7.165-4.949 1.347-8.243.648-13.078-.895l-2.12-.663c-2.355-.74-4.703-1.497-7.052-2.255l-5.044-1.59a4507 4507 0 0 1-11.285-3.568 3490 3490 0 0 0-23.395-7.301l-7.82-2.422q-11.946-3.7-23.887-7.415a1474 1474 0 0 0-6.193-1.91 259 259 0 0 1-6.623-2.183l-3.477-1.167-3.136-1.089c-3.43-.643-4.86-.196-7.89 1.458a125 125 0 0 0-6.312 5.688l-3.493 3.292-1.682 1.596c-4.11 3.869-8.43 7.501-12.724 11.162-6.546 5.585-13.01 11.228-19.355 17.04-4.471 4.082-9.045 8.04-13.653 11.968-6.544 5.582-13.004 11.222-19.347 17.031-4.459 4.072-9.019 8.021-13.618 11.934-5.756 4.902-11.464 9.83-17.004 14.976a207 207 0 0 1-11.25 9.75c-4.856 3.907-9.434 8.048-13.972 12.315A516 516 0 0 1 208 499l-1.558 1.45c-2.988 2.666-5 4.235-9.067 4.113l-2.227.003c-2.994-.789-4.165-2.217-6.148-4.566-.673-2.35-.673-2.35-.922-5.007l-.316-3.075-.29-3.374c-.118-1.187-.234-2.374-.354-3.596q-.382-3.906-.738-7.813c-.382-4.193-.793-8.383-1.208-12.572-.845-8.578-1.66-17.159-2.472-25.74q-.613-6.455-1.228-12.909-1.158-12.165-2.312-24.331a134716 134716 0 0 0-4.152-43.69q-.729-7.645-1.452-15.29l-1.317-13.865c-.654-6.926-1.318-13.841-2.239-20.738l-2.238-.738a36297 36297 0 0 1-53.88-17.83c-8.684-2.88-17.369-5.757-26.057-8.622a9748 9748 0 0 1-22.708-7.52q-6.01-2-12.026-3.978-5.664-1.861-11.317-3.752-2.075-.69-4.155-1.37a662 662 0 0 1-5.671-1.887l-3.207-1.061c-2.99-1.355-4.657-2.722-6.741-5.242-1.057-3.312-1.349-5.127-.05-8.375 2.968-3.8 6.563-5.49 10.8-7.687l2.827-1.506C39.041 236.6 42.518 234.796 46 233l2.21-1.14c7.447-3.843 14.9-7.673 22.365-11.477a2263 2263 0 0 0 29.03-15.066c5.947-3.14 11.92-6.23 17.895-9.317 7.639-3.954 15.27-7.919 22.875-11.937 8.651-4.571 17.344-9.062 26.037-13.55a2909 2909 0 0 0 24.408-12.736c8.049-4.247 16.134-8.424 24.216-12.608a2655 2655 0 0 0 19.339-10.107c8.651-4.57 17.344-9.06 26.037-13.55a2671 2671 0 0 0 22.213-11.574c8.681-4.587 17.398-9.106 26.117-13.621 10.16-5.263 20.306-10.552 30.447-15.85Q346.344 76.734 353.5 73l5.75-3 11.5-6 2.874-1.5 5.76-3.004q7.113-3.712 14.225-7.426a10359 10359 0 0 1 31.141-16.195c7.72-3.999 15.433-8.01 23.125-12.062l2.242-1.174c4.17-2.188 8.311-4.421 12.434-6.698l2.846-1.548q2.712-1.475 5.401-2.991C476.18 8.496 479.873 7.297 486 8m-15 43a6188 6188 0 0 0-21.312 35.688A5529 5529 0 0 1 432.5 115.5a5715 5715 0 0 0-16.75 28.063l-1.205 2.03Q410.271 152.796 406 160l-10.953 18.465a6096 6096 0 0 1-17.565 29.392c-6.135 10.214-12.204 20.468-18.273 30.722a20467 20467 0 0 1-12.772 21.546l-1.219 2.054a5610 5610 0 0 1-15.906 26.634 5078 5078 0 0 0-14.716 24.633l-2.968 4.997C307.002 326.249 302.482 334.11 298 342q16.16 5.018 32.323 10.033l1.999.62 8.263 2.564q13.524 4.195 27.044 8.396 9.435 2.93 18.87 5.858 5.712 1.773 11.424 3.548 5.446 1.694 10.894 3.383 2.89.897 5.78 1.797c8.795 2.725 17.616 5.355 26.444 7.966L454 390a385584 385584 0 0 0 7.745-143.39l.164-3.042q1.316-24.413 2.64-48.823 1.358-25.034 2.702-50.068.83-15.457 1.673-30.913.576-10.589 1.14-21.177.327-6.115.662-12.231.308-5.593.602-11.187.16-2.994.33-5.988l.184-3.564.167-3.09c.122-2.654.122-2.654-1.009-5.527m-46 4a97 97 0 0 0-6.746 3.27l-2.054 1.065a1444 1444 0 0 0-6.637 3.477l-4.585 2.389A3795 3795 0 0 0 392 72l-2.952 1.55q-4.466 2.343-8.927 4.701C372.94 82.05 365.72 85.773 358.5 89.5c-8.056 4.16-16.108 8.327-24.125 12.563-8.681 4.586-17.398 9.105-26.117 13.62a10013 10013 0 0 0-30.447 15.85q-7.155 3.734-14.311 7.467l-5.75 3-11.5 6-2.874 1.5-5.76 3.004q-7.113 3.712-14.225 7.426a10341 10341 0 0 1-31.141 16.195A3235 3235 0 0 0 169.5 188c-8.724 4.606-17.481 9.146-26.241 13.683a10007 10007 0 0 0-30.448 15.85 28674 28674 0 0 1-17.16 8.954 12045 12045 0 0 1-17.907 9.33l-5.77 3C65.607 242.132 59.293 245.541 53 249c1.385 2.77 2.732 2.79 5.642 3.766l3.042 1.032 3.366 1.117 3.523 1.188q4.794 1.613 9.595 3.21 4.004 1.335 8.007 2.677 9.445 3.163 18.895 6.306c6.5 2.162 12.997 4.34 19.49 6.523a5913 5913 0 0 0 16.726 5.595q5 1.663 9.992 3.345c3.714 1.252 7.434 2.484 11.155 3.714l3.34 1.135 3.077 1.007 2.663.889c2.848.568 4.715.31 7.487-.504 1.877-1.348 1.877-1.348 3.488-3.133l1.879-1.933 1.946-2.059a2147 2147 0 0 1 4.027-4.14l1.929-1.987c2.513-2.537 5.185-4.845 7.91-7.146 3.017-2.654 5.782-5.556 8.602-8.414 2.627-2.59 5.389-4.976 8.188-7.375 3.07-2.74 5.919-5.692 8.808-8.622 2.65-2.612 5.435-5.024 8.258-7.445 2.073-1.842 4.02-3.77 5.965-5.746 2.56-2.6 5.168-5.063 7.938-7.437 2.99-2.57 5.793-5.256 8.562-8.063 3.361-3.407 6.837-6.575 10.469-9.687 3.07-2.74 5.919-5.692 8.808-8.622 2.65-2.612 5.435-5.024 8.258-7.445 2.073-1.842 4.02-3.77 5.965-5.746 2.56-2.6 5.168-5.063 7.938-7.437 2.99-2.57 5.793-5.256 8.562-8.063 3.361-3.407 6.837-6.575 10.469-9.687 3.07-2.74 5.919-5.692 8.808-8.622 2.65-2.612 5.435-5.024 8.258-7.445 2.073-1.842 4.02-3.77 5.965-5.746 2.56-2.6 5.168-5.063 7.938-7.437 2.99-2.57 5.793-5.256 8.562-8.063 3.361-3.407 6.837-6.575 10.469-9.687 2.267-2.024 4.397-4.15 6.531-6.313 3.361-3.407 6.837-6.575 10.469-9.687 3.07-2.74 5.919-5.692 8.808-8.622 2.65-2.612 5.435-5.024 8.258-7.445 2.78-2.47 5.356-5.128 7.965-7.777 2.553-2.514 5.252-4.827 7.969-7.16 3.497-3.114 6.76-6.46 10.031-9.809zm15 12-1.29 1.215-20.026 18.847-2.097 1.973-4.206 3.959-10.666 10.041a12621 12621 0 0 1-22.698 21.323C371.333 131.559 363.667 138.78 356 146a14590 14590 0 0 1-26.983 25.358C321.333 178.559 313.667 185.78 306 193a14590 14590 0 0 1-26.983 25.358 11931 11931 0 0 0-20.876 19.626l-12.764 12.014-10.662 10.037a12575 12575 0 0 1-22.663 21.29q-7.752 7.267-15.49 14.55l-2.244 2.111c-.68.642-1.362 1.283-2.064 1.944l-1.834 1.726c-2.026 1.693-2.026 1.693-2.562 4.122.001 7.597.67 15.093 1.411 22.649l.41 4.285q.552 5.777 1.115 11.553.588 6.064 1.168 12.13.978 10.177 1.965 20.353 1.263 13.043 2.515 26.087a53226 53226 0 0 0 2.86 29.692q.545 5.665 1.095 11.33.201 2.073.4 4.146c.911 9.522.911 9.522 2.203 18.997 2.724-3.288 5.064-6.588 7.223-10.27l1.851-3.143 1.988-3.4 2.108-3.58q2.247-3.815 4.49-7.632c3.948-6.712 7.926-13.405 11.903-20.1.4-.676.802-1.352 1.216-2.049 5.883-9.911 11.8-19.803 17.738-29.682 6.136-10.215 12.205-20.468 18.274-30.723q6.378-10.777 12.772-21.546l1.219-2.054c5.882-9.91 11.797-19.8 17.735-29.677 6.136-10.215 12.205-20.468 18.274-30.723q6.378-10.777 12.772-21.546l1.219-2.054c5.882-9.91 11.797-19.8 17.735-29.677 6.136-10.215 12.205-20.468 18.274-30.723q6.378-10.777 12.772-21.546l1.222-2.06a6040 6040 0 0 1 17.512-29.304 5166 5166 0 0 0 17.612-29.582 1682 1682 0 0 1 11.67-19.452l2.138-3.516q1.991-3.268 4.004-6.523l1.763-2.899 1.554-2.525L441 69zM289 357c-1.542 2.032-2.829 4.002-4.125 6.188l-1.27 2.083c-5.188 8.577-10.23 17.246-15.275 25.907a1948 1948 0 0 1-14.152 23.863q-4.948 8.233-9.865 16.488-1.267 2.124-2.539 4.246-1.874 3.13-3.739 6.264l-1.142 1.9c-1.94 3.27-3.598 6.484-4.893 10.061l2.813-2.437c3.032-2.609 6.129-5.123 9.25-7.625 5.125-4.17 9.935-8.612 14.744-13.14 4.293-4.02 8.755-7.748 13.35-11.423 3.4-2.84 6.619-5.839 9.843-8.875a250 250 0 0 1 15.21-13.184c4.418-3.668 8.58-7.604 12.778-11.52 3.596-3.352 7.281-6.595 11.012-9.796l2.04-1.754A2573 2573 0 0 1 328 370c-.913-2.39-.913-2.39-4.279-3.237q-2.18-.694-4.37-1.365l-2.328-.73q-2.442-.765-4.887-1.519c-2.496-.77-4.988-1.552-7.48-2.337q-2.37-.739-4.742-1.476l-2.263-.71c-2.99-.917-5.505-1.626-8.651-1.626"/></svg>