<?xml version="1.0" encoding="UTF-8"?>
<svg version="1.1" xmlns="http://www.w3.org/2000/svg" width="512" height="512">
<path d="M0 0 C3.00626644 2.00417763 3.82600254 3.21807518 4.60931289 6.73818284 C5.0123461 10.10307669 4.99474223 13.18121071 4.81349373 16.56407452 C4.74643356 17.87551046 4.6793734 19.18694641 4.61028111 20.53812283 C4.52954137 21.9867408 4.44867869 23.43535192 4.3677063 24.88395691 C4.28622559 26.42806629 4.20532199 27.97220621 4.12494552 29.51637346 C3.90250601 33.75750192 3.67185637 37.99815013 3.43986487 42.23876536 C3.19104092 46.81330269 2.9498103 51.38824117 2.7076416 55.96313477 C2.23200284 64.92593122 1.74936632 73.88833789 1.26442088 82.85063507 C0.69983407 93.29000952 0.14233949 103.72975906 -0.41481115 114.16953257 C-1.40940874 132.80186675 -2.41018643 151.43386379 -3.41455078 170.06567383 C-4.38873279 188.13771974 -5.35901452 206.20996911 -6.32470703 224.2824707 C-6.38414426 225.39479827 -6.44358149 226.50712583 -6.50481986 227.6531603 C-6.62455775 229.89402947 -6.7442951 232.13489867 -6.86403192 234.37576791 C-6.92310058 235.48122642 -6.98216925 236.58668494 -7.04302788 237.7256422 C-7.13140715 239.37968812 -7.13140715 239.37968812 -7.22157186 241.06714911 C-8.14227104 258.29579179 -9.06616003 275.5242636 -9.99053343 292.75270947 C-10.26962461 297.9547424 -10.54854522 303.15678436 -10.82709265 308.35884643 C-11.41294821 319.30007944 -11.99984544 330.24125421 -12.59038125 341.18223574 C-12.83453111 345.70600745 -13.07806229 350.22980999 -13.31982803 354.75370979 C-13.54142615 358.89970747 -13.76494197 363.04559727 -13.98995782 367.19141082 C-14.07079097 368.6866687 -14.15094897 370.18196327 -14.23034154 371.67729833 C-14.57772363 378.21348746 -14.94247957 384.74861105 -15.44992256 391.2746172 C-15.5151603 392.11926621 -15.58039805 392.96391523 -15.64761269 393.83415967 C-16.19367627 397.19037167 -17.38485128 398.87960914 -20 401 C-24.94893025 402.34722866 -28.24282031 401.64785135 -33.078125 400.10546875 C-33.77787445 399.88655472 -34.4776239 399.66764069 -35.19857788 399.4420929 C-37.5530175 398.70253754 -39.90122628 397.94483931 -42.25 397.1875 C-43.93104431 396.65617841 -45.61253644 396.12627196 -47.29443359 395.59765625 C-51.05775146 394.41353277 -54.81890658 393.22280962 -58.57910156 392.02880859 C-65.71809271 389.76716436 -72.87006882 387.54766435 -80.0234375 385.33203125 C-80.66711273 385.13263632 -81.31078796 384.93324139 -81.97396851 384.72780418 C-84.5808427 383.92032015 -87.18775392 383.11295593 -89.7947464 382.30585384 C-97.75850463 379.84013262 -105.71948115 377.36545843 -113.68051147 374.89094543 C-115.74356984 374.25005262 -117.80798321 373.61350255 -119.87384033 372.98168945 C-122.09164773 372.2852445 -124.29850762 371.55349706 -126.49676514 370.79760742 C-127.6442926 370.41258057 -128.79182007 370.02755371 -129.97412109 369.63085938 C-131.00910736 369.27165405 -132.04409363 368.91244873 -133.11044312 368.5423584 C-136.53947484 367.89874271 -137.96927141 368.3460832 -141 370 C-143.19250468 371.85001355 -145.25471344 373.70029555 -147.3125 375.6875 C-148.47591673 376.78584069 -149.63997583 377.88350135 -150.8046875 378.98046875 C-151.35995117 379.50688965 -151.91521484 380.03331055 -152.48730469 380.57568359 C-156.59661111 384.44490465 -160.91696182 388.07737584 -165.2109375 391.73828125 C-171.75655431 397.32318933 -178.22039507 402.96553961 -184.56640625 408.77734375 C-189.037065 412.86049757 -193.61141889 416.81842379 -198.21875 420.74609375 C-204.76251142 426.32756386 -211.22308967 431.96800738 -217.56640625 437.77734375 C-222.02489278 441.8493804 -226.58497728 445.79842118 -231.18359375 449.7109375 C-236.93971645 454.61349982 -242.64776645 459.54053928 -248.1875 464.6875 C-251.83413376 468.07524373 -255.55617401 471.31897796 -259.4375 474.4375 C-264.2938319 478.34368 -268.87174192 482.48542672 -273.40991211 486.75170898 C-274.93060479 488.17833325 -276.46212451 489.59192912 -278 491 C-278.77102051 491.71820923 -278.77102051 491.71820923 -279.55761719 492.45092773 C-282.54578616 495.1155521 -284.55743438 496.6846707 -288.625 496.5625 C-289.35976563 496.56378906 -290.09453125 496.56507813 -290.8515625 496.56640625 C-293.84555193 495.77708176 -295.01661941 494.34856916 -297 492 C-297.67333031 489.64976788 -297.67333031 489.64976788 -297.92245483 486.99333191 C-298.02657999 485.97857694 -298.13070515 484.96382196 -298.23798561 483.91831684 C-298.3339572 482.80469367 -298.42992878 481.6910705 -298.52880859 480.54370117 C-298.64551092 479.35699672 -298.76221325 478.17029226 -298.88245201 476.94762707 C-299.13628164 474.34373901 -299.38352531 471.74013397 -299.6203537 469.13473129 C-300.00225752 464.94194653 -300.41313874 460.75229218 -300.82794189 456.56265259 C-301.6734025 447.98475667 -302.48853159 439.40409945 -303.30018663 430.82294869 C-303.70773638 426.51984045 -304.11795951 422.21698705 -304.52792358 417.91410828 C-305.300297 409.80380785 -306.070734 401.69332496 -306.84025419 393.58275336 C-308.22202595 379.01921245 -309.6059121 364.45587287 -310.99242818 349.89278287 C-311.47756139 344.79625087 -311.96142205 339.69960018 -312.44423318 334.6028477 C-312.74401698 331.44048526 -313.04476443 328.27821498 -313.34575081 325.1159668 C-313.48443278 323.65675457 -313.62270898 322.19750371 -313.7605381 320.73821068 C-314.41491592 313.81176803 -315.0791369 306.89659881 -316 300 C-316.73845028 299.75630802 -317.47690056 299.51261604 -318.23772812 299.26153946 C-336.2025821 293.33213713 -354.16299568 287.38946564 -372.11855698 281.43198013 C-380.80182651 278.55130918 -389.48654337 275.67515423 -398.17480469 272.80957031 C-405.74716906 270.31202164 -413.31668655 267.80605837 -420.88290048 265.28993583 C-424.88954239 263.95786601 -428.89748611 262.63006222 -432.90886688 261.31232452 C-436.68466884 260.07182672 -440.45656127 258.82010945 -444.22576141 257.55970001 C-445.60948294 257.09919298 -446.99458025 256.64279623 -448.38111877 256.19084167 C-450.27514186 255.57278406 -452.16382233 254.9384253 -454.05218506 254.30328369 C-455.1104034 253.95300236 -456.16862175 253.60272102 -457.25890732 253.2418251 C-460.24898553 251.88719955 -461.91626055 250.51952566 -464 248 C-465.05712884 244.68766297 -465.34900409 242.87322834 -464.05078125 239.625 C-461.08204835 235.82502189 -457.48741672 234.13577967 -453.25 231.9375 C-452.31696045 231.44072754 -451.3839209 230.94395508 -450.42260742 230.43212891 C-446.9591687 228.60034861 -443.48187943 226.79637152 -440 225 C-438.9059787 224.43523956 -438.9059787 224.43523956 -437.78985596 223.85906982 C-430.34307405 220.01749294 -422.89063541 216.18700667 -415.42480469 212.38256836 C-405.71013083 207.43118158 -396.03737639 202.40813736 -386.39526367 197.31689453 C-380.44762277 194.17746724 -374.47465423 191.08768014 -368.5 188 C-360.86134299 184.04634201 -353.22959623 180.08129908 -345.625 176.0625 C-336.97386654 171.49151104 -328.28136775 167.00149195 -319.58752441 162.51251221 C-311.43338915 158.3015387 -303.29364918 154.06532706 -295.1796875 149.77734375 C-287.1311911 145.52952621 -279.04577072 141.35323038 -270.96386719 137.16943359 C-264.50506759 133.82375724 -258.05607972 130.4611311 -251.625 127.0625 C-242.97386654 122.49151104 -234.28136775 118.00149195 -225.58752441 113.51251221 C-218.16890276 109.68137399 -210.75744235 105.83805937 -203.375 101.9375 C-194.69351665 97.35058423 -185.97711928 92.83212296 -177.25830078 88.31665039 C-167.09837345 83.05406199 -156.95236497 77.76515714 -146.81054688 72.46777344 C-142.04114818 69.9770138 -137.2705037 67.48864238 -132.5 65 C-130.58332753 64.00001112 -128.66666086 63.00001113 -126.75 62 C-122.91666667 60 -119.08333333 58 -115.25 56 C-114.30157227 55.50516113 -113.35314453 55.01032227 -112.37597656 54.50048828 C-110.4560779 53.49881619 -108.53615596 52.49718871 -106.61621094 51.49560547 C-101.87380364 49.02155056 -97.13178116 46.54676427 -92.390625 44.0703125 C-82.01944498 38.65433182 -71.63947575 33.25580936 -61.25 27.875 C-53.53004969 23.87598536 -45.81730551 19.86444095 -38.125 15.8125 C-37.01499634 15.23145508 -37.01499634 15.23145508 -35.88256836 14.63867188 C-31.71208201 12.45129341 -27.57176598 10.21799446 -23.44921875 7.94140625 C-22.50997559 7.43053467 -21.57073242 6.91966309 -20.60302734 6.39331055 C-18.7951255 5.40964112 -16.99411425 4.41315616 -15.20166016 3.40161133 C-9.82074256 0.49629499 -6.12735072 -0.70336035 0 0 Z M-15 43 C-22.14774547 54.87010825 -29.24467436 66.76969643 -36.3125 78.6875 C-42.01718628 88.30651155 -47.73703209 97.91573744 -53.5 107.5 C-59.11284476 116.83677327 -64.690661 126.19381233 -70.25 135.5625 C-70.6476355 136.23258087 -71.045271 136.90266174 -71.45495605 137.5930481 C-74.3041379 142.39487095 -77.15219093 147.19736291 -80 152 C-83.24923763 157.47961916 -86.49897115 162.95894334 -89.75 168.4375 C-90.14696075 169.10648315 -90.54392151 169.77546631 -90.95291138 170.46472168 C-96.77828039 180.27996968 -102.6371609 190.07454261 -108.51757812 199.85693359 C-114.65313536 210.07135404 -120.7224869 220.32465359 -126.79095459 230.57902527 C-131.04322772 237.76392835 -135.30143746 244.94530647 -139.5625 252.125 C-139.96477814 252.80284546 -140.36705627 253.48069092 -140.78152466 254.17907715 C-146.05989034 263.07116153 -151.36003379 271.94971416 -156.6875 280.8125 C-161.6146933 289.01093916 -166.52342052 297.21999829 -171.40420532 305.44613647 C-172.39272436 307.11204169 -173.38225142 308.77734863 -174.37182617 310.44262695 C-178.99755779 318.24858672 -183.51769427 326.11117142 -188 334 C-177.22609039 337.3450771 -166.45209709 340.68988421 -155.67749023 344.03271484 C-154.68773052 344.33979087 -154.68773052 344.33979087 -153.67797565 344.65307045 C-150.92349428 345.5076502 -148.16901066 346.36222269 -145.41451454 347.21675491 C-136.39930076 350.01359398 -127.38460433 352.81209085 -118.37055492 355.61268044 C-112.08100406 357.56671234 -105.79104953 359.51944154 -99.500844 361.47136497 C-95.69273598 362.65312485 -91.88481248 363.83547112 -88.07736206 365.01934814 C-84.44653071 366.14828907 -80.81515982 367.27547948 -77.18343735 368.40155029 C-75.25605468 368.99960889 -73.32919567 369.59935434 -71.40237427 370.19921875 C-62.60792486 372.92381672 -53.78727553 375.55382163 -44.95860291 378.16513062 C-43.70991157 378.53477275 -42.46122024 378.90441488 -41.17468977 379.28525829 C-38.11655363 380.19048961 -35.05832151 381.09539518 -32 382 C-29.68311529 339.24701558 -27.37229635 296.49370715 -25.06965381 253.73995317 C-24.79802608 248.69666888 -24.52634795 243.65338731 -24.25463867 238.61010742 C-24.2005453 237.60604779 -24.14645192 236.60198816 -24.09071935 235.56750248 C-23.21382107 219.29310681 -22.3328359 203.01893481 -21.45034986 186.7448413 C-20.54545914 170.05590302 -19.64493829 153.36673313 -18.7485047 136.67733842 C-18.19486852 126.37257967 -17.63779249 116.06801855 -17.0763656 105.76368127 C-16.69211173 98.70514884 -16.31208866 91.64639671 -15.93544238 84.58745428 C-15.71775636 80.51005424 -15.49815797 76.43278006 -15.27355194 72.35575485 C-15.06818719 68.62724865 -14.8681062 64.89849868 -14.67232151 61.1694775 C-14.56610778 59.17324484 -14.45415487 57.17732013 -14.34203476 55.18141049 C-14.28132469 54.00501643 -14.22061461 52.82862237 -14.15806484 51.61658001 C-14.10300539 50.59703092 -14.04794595 49.57748184 -13.99121803 48.52703732 C-13.86864422 45.872519 -13.86864422 45.872519 -15 43 Z M-61 47 C-63.32224782 48.0125177 -65.51243307 49.0852249 -67.74609375 50.26953125 C-68.42396439 50.62102737 -69.10183502 50.9725235 -69.80024719 51.33467102 C-72.01670461 52.48637252 -74.22705065 53.64931502 -76.4375 54.8125 C-77.96546609 55.60924089 -79.49378763 56.40530046 -81.02246094 57.20068359 C-85.3535891 59.45711232 -89.67761907 61.72687149 -94 64 C-95.46107178 64.76691162 -95.46107178 64.76691162 -96.95166016 65.54931641 C-99.929331 67.11284655 -102.9058864 68.67840107 -105.87866211 70.2512207 C-113.06108863 74.04852313 -120.2809956 77.77291022 -127.5 81.5 C-135.55640608 85.65973201 -143.60818526 89.82676602 -151.625 94.0625 C-160.30648335 98.64941577 -169.02288072 103.16787704 -177.74169922 107.68334961 C-187.90162655 112.94593801 -198.04763503 118.23484286 -208.18945312 123.53222656 C-212.95885182 126.0229862 -217.7294963 128.51135762 -222.5 131 C-224.41667247 131.99998888 -226.33333914 132.99998887 -228.25 134 C-232.08333333 136 -235.91666667 138 -239.75 140 C-241.1726416 140.7422583 -241.1726416 140.7422583 -242.62402344 141.49951172 C-244.5439221 142.50118381 -246.46384404 143.50281129 -248.38378906 144.50439453 C-253.12619636 146.97844944 -257.86821884 149.45323573 -262.609375 151.9296875 C-272.98055481 157.34566807 -283.36049246 162.74425225 -293.75 168.125 C-301.34613734 172.05936045 -308.93530616 176.0054969 -316.5 180 C-325.22359981 184.60645827 -333.98122804 189.14629195 -342.74121094 193.68310547 C-352.90131032 198.94575734 -363.04747377 204.23475863 -373.18945312 209.53222656 C-376.99877927 211.52160015 -380.80892043 213.50940974 -384.61914062 215.49707031 C-386.52938956 216.49363747 -388.43954683 217.49038034 -390.34960938 218.48730469 C-395.28871211 221.06503627 -400.22919969 223.64006202 -405.171875 226.2109375 C-406.18958984 226.74074219 -407.20730469 227.27054688 -408.25585938 227.81640625 C-410.17858372 228.81727646 -412.10172533 229.81734574 -414.02539062 230.81640625 C-420.39367883 234.13293271 -426.70760049 237.5417554 -433 241 C-431.61453027 243.77093947 -430.26817024 243.78925315 -427.35772705 244.76579285 C-426.3538797 245.1065535 -425.35003235 245.44731415 -424.31576538 245.79840088 C-423.20512726 246.16681091 -422.09448914 246.53522095 -420.95019531 246.91479492 C-419.78765228 247.30683609 -418.62510925 247.69887726 -417.42733765 248.10279846 C-414.23071141 249.17867037 -411.03194351 250.24763243 -407.8317728 251.31288314 C-405.16198087 252.20241805 -402.49366437 253.09633376 -399.82530856 253.99016553 C-393.52910049 256.09902413 -387.23021567 258.19974152 -380.9296875 260.2956543 C-374.42910784 262.45829007 -367.93344249 264.63522276 -361.43999791 266.81917876 C-355.86744608 268.69279907 -350.29184274 270.55712195 -344.71372676 272.41411096 C-341.38116857 273.52366959 -338.04991355 274.63680226 -334.72159576 275.75902367 C-331.00797191 277.01066452 -327.28807645 278.24291309 -323.56738281 279.47338867 C-321.91357101 280.03511276 -321.91357101 280.03511276 -320.22634888 280.60818481 C-319.21122223 280.94048599 -318.19609558 281.27278717 -317.15020752 281.61515808 C-315.8316873 282.05510495 -315.8316873 282.05510495 -314.4865303 282.50393963 C-311.63899982 283.07201918 -309.77191567 282.81373481 -307 282 C-305.12316601 280.65191816 -305.12316601 280.65191816 -303.51171875 278.8671875 C-302.89184082 278.2292627 -302.27196289 277.59133789 -301.63330078 276.93408203 C-300.67012939 275.91483643 -300.67012939 275.91483643 -299.6875 274.875 C-298.34689761 273.49299903 -297.0044713 272.11276482 -295.66015625 270.734375 C-295.02352051 270.07888672 -294.38688477 269.42339844 -293.73095703 268.74804688 C-291.21842235 266.21070579 -288.54645735 263.90285361 -285.8203125 261.6015625 C-282.80443862 258.94811123 -280.03862286 256.04600125 -277.21875 253.1875 C-274.59228878 250.59803119 -271.83023542 248.21163036 -269.03125 245.8125 C-265.96025683 243.07222917 -263.11213124 240.12053098 -260.22265625 237.19140625 C-257.5729856 234.57898932 -254.78827197 232.16697379 -251.96484375 229.74609375 C-249.89179676 227.90384325 -247.94564198 225.97598338 -246 224 C-243.44009866 221.40017817 -240.8322046 218.93731602 -238.0625 216.5625 C-235.07198284 213.99334729 -232.26883316 211.30682744 -229.5 208.5 C-226.13885518 205.0928121 -222.66298797 201.92541826 -219.03125 198.8125 C-215.96025683 196.07222917 -213.11213124 193.12053098 -210.22265625 190.19140625 C-207.5729856 187.57898932 -204.78827197 185.16697379 -201.96484375 182.74609375 C-199.89179676 180.90384325 -197.94564198 178.97598338 -196 177 C-193.44009866 174.40017817 -190.8322046 171.93731602 -188.0625 169.5625 C-185.07198284 166.99334729 -182.26883316 164.30682744 -179.5 161.5 C-176.13885518 158.0928121 -172.66298797 154.92541826 -169.03125 151.8125 C-165.96025683 149.07222917 -163.11213124 146.12053098 -160.22265625 143.19140625 C-157.5729856 140.57898932 -154.78827197 138.16697379 -151.96484375 135.74609375 C-149.89179676 133.90384325 -147.94564198 131.97598338 -146 130 C-143.44009866 127.40017817 -140.8322046 124.93731602 -138.0625 122.5625 C-135.07198284 119.99334729 -132.26883316 117.30682744 -129.5 114.5 C-126.13885518 111.0928121 -122.66298797 107.92541826 -119.03125 104.8125 C-116.76361428 102.7890712 -114.6342305 100.66346653 -112.5 98.5 C-109.13885518 95.0928121 -105.66298797 91.92541826 -102.03125 88.8125 C-98.96025683 86.07222917 -96.11213124 83.12053098 -93.22265625 80.19140625 C-90.5729856 77.57898932 -87.78827197 75.16697379 -84.96484375 72.74609375 C-82.18438168 70.27518611 -79.60881782 67.6183306 -77 64.96875 C-74.4468002 62.45544394 -71.74763583 60.14231412 -69.03125 57.80859375 C-65.53428909 54.69495355 -62.27032265 51.34860165 -59 48 C-59.66 47.67 -60.32 47.34 -61 47 Z M-46 59 C-46.42595459 59.40089844 -46.85190918 59.80179688 -47.29077148 60.21484375 C-53.96598307 66.49739583 -60.64119466 72.77994792 -67.31640625 79.0625 C-68.00814941 79.71355713 -68.69989258 80.36461426 -69.41259766 81.03540039 C-70.81459681 82.35491936 -72.21661532 83.67441776 -73.61865234 84.99389648 C-77.17460332 88.34050584 -80.73021621 91.68747302 -84.28515625 95.03515625 C-91.84286358 102.1515376 -99.40766598 109.26019923 -106.98291016 116.35791016 C-114.66710487 123.55936773 -122.33327834 130.77995125 -130 138 C-138.98553635 146.46202763 -147.97592437 154.91871269 -156.98291016 163.35791016 C-164.66710487 170.55936773 -172.33327834 177.77995125 -180 185 C-188.98553635 193.46202763 -197.97592437 201.91871269 -206.98291016 210.35791016 C-213.95181875 216.88901738 -220.90568613 223.43606516 -227.85888672 229.98388672 C-232.11263793 233.98930035 -236.36772381 237.99329609 -240.62255859 241.99755859 C-244.177198 245.34295733 -247.73151557 248.68869662 -251.28515625 252.03515625 C-258.83116863 259.14052557 -266.38419505 266.23826247 -273.94775391 273.32495117 C-279.11658379 278.16904119 -284.27860257 283.02033409 -289.4375 287.875 C-290.17806641 288.57173828 -290.91863281 289.26847656 -291.68164062 289.98632812 C-292.36291016 290.62763672 -293.04417969 291.26894531 -293.74609375 291.9296875 C-294.65379517 292.78409424 -294.65379517 292.78409424 -295.57983398 293.65576172 C-297.60551614 295.34908882 -297.60551614 295.34908882 -298.14227962 297.77797413 C-298.14084756 305.37496434 -297.47248876 312.87132186 -296.73071289 320.42651367 C-296.59400322 321.85499792 -296.45770816 323.28352189 -296.3217926 324.71208191 C-295.9541472 328.5635005 -295.58063448 332.41432909 -295.20592427 336.26506591 C-294.81344433 340.30801683 -294.42614563 344.35146432 -294.03819275 348.39485168 C-293.38647659 355.17947891 -292.73119645 361.96375408 -292.07348633 368.74780273 C-291.23049809 377.44312886 -290.39344472 386.13901563 -289.55825138 394.8350935 C-288.83819554 402.33181672 -288.11537818 409.82827331 -287.39214015 417.3246901 C-287.16064377 419.72541292 -286.92953095 422.12617244 -286.69847298 424.52693748 C-286.33481563 428.30363653 -285.96942988 432.08016469 -285.60272789 435.85656929 C-285.46875187 437.23877064 -285.33531238 438.62102412 -285.20246124 440.00333405 C-284.29180969 449.52506819 -284.29180969 449.52506819 -283 459 C-280.27599929 455.71248944 -277.93583886 452.41198801 -275.77734375 448.73046875 C-275.16624756 447.69325684 -274.55515137 446.65604492 -273.92553711 445.58740234 C-273.26948486 444.46543457 -272.61343262 443.3434668 -271.9375 442.1875 C-271.23555724 440.99403871 -270.53315367 439.80084834 -269.83032227 438.60791016 C-268.33208909 436.06446377 -266.83549186 433.52006493 -265.33984375 430.97509766 C-261.39235544 424.26325079 -257.413703 417.56985921 -253.4375 410.875 C-253.03621887 410.19896729 -252.63493774 409.52293457 -252.22149658 408.82641602 C-246.3379907 398.91467825 -240.42161084 389.02322223 -234.4831543 379.14428711 C-228.34735473 368.9294586 -222.27775481 358.67575485 -216.20904541 348.42097473 C-211.95677228 341.23607165 -207.69856254 334.05469353 -203.4375 326.875 C-203.03522186 326.19715454 -202.63294373 325.51930908 -202.21847534 324.82092285 C-196.33594132 314.91103938 -190.42053345 305.02142992 -184.4831543 295.14428711 C-178.34735473 284.9294586 -172.27775481 274.67575485 -166.20904541 264.42097473 C-161.95677228 257.23607165 -157.69856254 250.05469353 -153.4375 242.875 C-153.03522186 242.19715454 -152.63294373 241.51930908 -152.21847534 240.82092285 C-146.33594132 230.91103938 -140.42053345 221.02142992 -134.4831543 211.14428711 C-128.34735473 200.9294586 -122.27775481 190.67575485 -116.20904541 180.42097473 C-111.95677231 173.23607169 -107.69858563 166.05467979 -103.4375 158.875 C-103.03422485 158.19549286 -102.63094971 157.51598572 -102.2154541 156.81588745 C-96.40655842 147.03036298 -90.56700099 137.26378564 -84.70288086 127.51123047 C-78.79277026 117.6739394 -72.9352261 107.80563305 -67.09082031 97.92919922 C-63.23765597 91.42225515 -59.36247869 84.93099216 -55.421875 78.4765625 C-54.70888102 77.30475038 -53.99598769 76.13287701 -53.28320312 74.9609375 C-51.95535939 72.78230436 -50.62099866 70.60762618 -49.27929688 68.4375 C-48.69728516 67.48101562 -48.11527344 66.52453125 -47.515625 65.5390625 C-47.00290039 64.70584473 -46.49017578 63.87262695 -45.96191406 63.01416016 C-45.64448242 62.3494873 -45.32705078 61.68481445 -45 61 C-45.33 60.34 -45.66 59.68 -46 59 Z M-197 349 C-198.54207776 351.03157548 -199.82874393 353.00164052 -201.125 355.1875 C-201.54386475 355.87513428 -201.96272949 356.56276855 -202.39428711 357.27124023 C-207.58290093 365.84789045 -212.62484075 374.51690108 -217.67041016 383.1784668 C-222.32627027 391.17012297 -227.05266249 399.11609864 -231.82180786 407.0406189 C-235.12227163 412.52942341 -238.40765089 418.02722972 -241.68676758 423.52880859 C-242.53175784 424.94498787 -243.37814835 426.36033246 -244.22583008 427.77490234 C-245.47559406 429.86093167 -246.72068337 431.94968747 -247.96484375 434.0390625 C-248.3418895 434.66616119 -248.71893524 435.29325989 -249.10740662 435.93936157 C-251.04771434 439.20938309 -252.70453518 442.42277458 -254 446 C-253.071875 445.195625 -252.14375 444.39125 -251.1875 443.5625 C-248.15454508 440.95415877 -245.0583466 438.43971724 -241.9375 435.9375 C-236.81209706 431.76827649 -232.00170168 427.32649088 -227.19311523 422.79858398 C-222.8996219 418.7772837 -218.43799357 415.05039486 -213.84375 411.375 C-210.44364815 408.5353545 -207.224149 405.53610629 -204 402.5 C-199.09039702 397.87705042 -194.05521457 393.53398821 -188.7890625 389.31640625 C-184.37181996 385.64774403 -180.20945938 381.71228748 -176.01171875 377.796875 C-172.41559933 374.44423698 -168.73098728 371.20148035 -165 368 C-164.32710938 367.42121094 -163.65421875 366.84242188 -162.9609375 366.24609375 C-161.30946393 364.82819513 -159.65506671 363.41370281 -158 362 C-158.91250236 359.60913885 -158.91250236 359.60913885 -162.27880859 358.76318359 C-163.73277142 358.30008803 -165.18955349 357.84578843 -166.6484375 357.3984375 C-167.4167691 357.1571109 -168.18510071 356.9157843 -168.97671509 356.66714478 C-170.60475822 356.15758501 -172.23397999 355.6517783 -173.86425781 355.14941406 C-176.36035101 354.37951834 -178.85221854 353.59701703 -181.34375 352.8125 C-182.92424412 352.31955825 -184.50496613 351.82734647 -186.0859375 351.3359375 C-186.83289886 351.10160004 -187.57986023 350.86726257 -188.34945679 350.62582397 C-191.33920604 349.70921281 -193.85370913 349 -197 349 Z " fill="#44B5ED" transform="translate(486,8)"/>
</svg>
